<svg id="visual" viewBox="0 0 960 540" width="960" height="540" xmlns="http://www.w3.org/2000/svg" xmlns:xlink="http://www.w3.org/1999/xlink" version="1.1"><rect x="0" y="0" width="960" height="540" fill="#fff"></rect><defs><linearGradient id="grad1_0" x1="43.8%" y1="0%" x2="100%" y2="100%"><stop offset="14.444444444444446%" stop-color="#ffffff" stop-opacity="1"></stop><stop offset="85.55555555555554%" stop-color="#ffffff" stop-opacity="1"></stop></linearGradient></defs><defs><linearGradient id="grad2_0" x1="0%" y1="0%" x2="56.3%" y2="100%"><stop offset="14.444444444444446%" stop-color="#ffffff" stop-opacity="1"></stop><stop offset="85.55555555555554%" stop-color="#ffffff" stop-opacity="1"></stop></linearGradient></defs><g transform="translate(960, 0)"><path d="M0 405C-25.9 339.7 -51.8 274.4 -110.2 266.1C-168.6 257.8 -259.4 306.5 -286.4 286.4C-313.3 266.3 -276.4 177.4 -285.5 118.2C-294.6 59.1 -349.8 29.5 -405 0L0 0Z" fill="#6167d6"></path></g><g transform="translate(0, 540)"><path d="M0 -405C31.4 -354.3 62.9 -303.6 121.7 -293.8C180.5 -284 266.7 -315.2 286.4 -286.4C306.1 -257.5 259.2 -168.7 267.9 -111C276.6 -53.2 340.8 -26.6 405 0L0 0Z" fill="#6167d6"></path></g></svg>