<svg id="visual" viewBox="0 0 960 540" width="960" height="540" xmlns="http://www.w3.org/2000/svg" xmlns:xlink="http://www.w3.org/1999/xlink" version="1.1"><rect x="0" y="0" width="960" height="540" fill="#e9f1ff"></rect><defs><linearGradient id="grad1_0" x1="43.8%" y1="0%" x2="100%" y2="100%"><stop offset="14.444444444444446%" stop-color="#e9f1ff" stop-opacity="1"></stop><stop offset="85.55555555555554%" stop-color="#e9f1ff" stop-opacity="1"></stop></linearGradient></defs><defs><linearGradient id="grad2_0" x1="0%" y1="0%" x2="56.3%" y2="100%"><stop offset="14.444444444444446%" stop-color="#e9f1ff" stop-opacity="1"></stop><stop offset="85.55555555555554%" stop-color="#e9f1ff" stop-opacity="1"></stop></linearGradient></defs><g transform="translate(960, 0)"><path d="M0 378C-50.4 375.2 -100.9 372.4 -144.7 349.2C-188.4 326.1 -225.5 282.6 -237.6 237.6C-249.7 192.5 -236.7 145.9 -255.9 106C-275.1 66.1 -326.6 33.1 -378 0L0 0Z" fill="#fff"></path></g><g transform="translate(0, 540)"><path d="M0 -378C48.6 -373.4 97.2 -368.8 144.7 -349.2C192.1 -329.6 238.5 -295 249.6 -249.6C260.7 -204.2 236.7 -147.9 252.2 -104.5C267.8 -61.1 322.9 -30.5 378 0L0 0Z" fill="#fff"></path></g></svg>