<svg id="visual" viewBox="0 0 900 600" width="900" height="600" xmlns="http://www.w3.org/2000/svg" xmlns:xlink="http://www.w3.org/1999/xlink" version="1.1"><rect x="0" y="0" width="900" height="600" fill="#fff"></rect><g transform="translate(489.0388761833074 256.3566342937653)"><path d="M129 -181.2C185.1 -106.6 261 -83 274.8 -42.8C288.6 -2.6 240.4 54.2 218.5 158.1C196.6 261.9 200.9 412.9 145.9 457.3C91 501.8 -23.3 439.8 -134.4 390.2C-245.5 340.7 -353.6 303.6 -355.3 236.3C-357 169 -252.4 71.5 -196.8 1.5C-141.3 -68.4 -134.9 -110.8 -110.3 -191C-85.7 -271.1 -42.9 -389.1 -3.2 -385.2C36.4 -381.4 72.8 -255.8 129 -181.2" fill="#e9f1ff"></path></g></svg>