<svg id="visual" viewBox="0 0 900 600" width="900" height="600" xmlns="http://www.w3.org/2000/svg" xmlns:xlink="http://www.w3.org/1999/xlink" version="1.1"><g stroke-width="1" stroke-linejoin="bevel"><path d="M309 310L330 600L628 327Z" fill="#c2d4f9" stroke="#c2d4f9"></path><path d="M330 600L604 600L628 327Z" fill="#6b77dd" stroke="#6b77dd"></path><path d="M900 600L900 306L628 327Z" fill="#6b77dd" stroke="#6b77dd"></path><path d="M621 0L317 0L309 310Z" fill="#7687e3" stroke="#7687e3"></path><path d="M604 600L900 600L628 327Z" fill="#6167d6" stroke="#6167d6"></path><path d="M621 0L309 310L628 327Z" fill="#90a6ee" stroke="#90a6ee"></path><path d="M900 306L621 0L628 327Z" fill="#6b77dd" stroke="#6b77dd"></path><path d="M309 310L0 600L330 600Z" fill="#e9f1ff" stroke="#e9f1ff"></path><path d="M0 287L0 600L309 310Z" fill="#e9f1ff" stroke="#e9f1ff"></path><path d="M317 0L0 287L309 310Z" fill="#d5e2fc" stroke="#d5e2fc"></path><path d="M900 306L900 0L621 0Z" fill="#c2d4f9" stroke="#c2d4f9"></path><path d="M317 0L0 0L0 287Z" fill="#8297e9" stroke="#8297e9"></path></g></svg>