<svg id="visual" viewBox="0 0 960 540" width="960" height="540" xmlns="http://www.w3.org/2000/svg" xmlns:xlink="http://www.w3.org/1999/xlink" version="1.1"><g stroke-width="1" stroke-linejoin="bevel"><path d="M525 190L747 0L509 0Z" fill="#ffffff" stroke="#ffffff"></path><path d="M525 190L751 179L747 0Z" fill="#ffffff" stroke="#ffffff"></path><path d="M525 190L688 319L751 179Z" fill="#edf4ff" stroke="#edf4ff"></path><path d="M285 229L534 392L525 190Z" fill="#ebf2ff" stroke="#ebf2ff"></path><path d="M525 190L534 392L688 319Z" fill="#e9f1ff" stroke="#e9f1ff"></path><path d="M960 380L960 161L751 179Z" fill="#f8fbff" stroke="#f8fbff"></path><path d="M751 179L960 161L747 0Z" fill="#ebf2ff" stroke="#ebf2ff"></path><path d="M960 161L960 0L747 0Z" fill="#fbfcff" stroke="#fbfcff"></path><path d="M509 0L285 229L525 190Z" fill="#fbfcff" stroke="#fbfcff"></path><path d="M509 0L225 0L285 229Z" fill="#fdfeff" stroke="#fdfeff"></path><path d="M675 540L960 380L688 319Z" fill="#f2f7ff" stroke="#f2f7ff"></path><path d="M688 319L960 380L751 179Z" fill="#fdfeff" stroke="#fdfeff"></path><path d="M285 229L240 317L534 392Z" fill="#f8fbff" stroke="#f8fbff"></path><path d="M0 210L240 317L285 229Z" fill="#f0f5ff" stroke="#f0f5ff"></path><path d="M534 392L675 540L688 319Z" fill="#fdfeff" stroke="#fdfeff"></path><path d="M435 540L675 540L534 392Z" fill="#ebf2ff" stroke="#ebf2ff"></path><path d="M240 317L435 540L534 392Z" fill="#f2f7ff" stroke="#f2f7ff"></path><path d="M675 540L960 540L960 380Z" fill="#ffffff" stroke="#ffffff"></path><path d="M240 317L264 540L435 540Z" fill="#fdfeff" stroke="#fdfeff"></path><path d="M225 0L0 210L285 229Z" fill="#f6f9ff" stroke="#f6f9ff"></path><path d="M240 317L0 403L264 540Z" fill="#f2f7ff" stroke="#f2f7ff"></path><path d="M0 0L0 210L225 0Z" fill="#f0f5ff" stroke="#f0f5ff"></path><path d="M0 210L0 403L240 317Z" fill="#f2f7ff" stroke="#f2f7ff"></path><path d="M0 403L0 540L264 540Z" fill="#f2f7ff" stroke="#f2f7ff"></path></g></svg>