<svg id="visual" viewBox="0 0 900 600" width="900" height="600" xmlns="http://www.w3.org/2000/svg" xmlns:xlink="http://www.w3.org/1999/xlink" version="1.1"><g stroke-width="1" stroke-linejoin="bevel"><path d="M300 285L624 267L310 0Z" fill="#cedcfa" stroke="#cedcfa"></path><path d="M624 267L613 0L310 0Z" fill="#e9f1ff" stroke="#e9f1ff"></path><path d="M626 600L900 274L624 267Z" fill="#aabbf2" stroke="#aabbf2"></path><path d="M624 267L900 0L613 0Z" fill="#dbe6fd" stroke="#dbe6fd"></path><path d="M900 274L900 0L624 267Z" fill="#858ee4" stroke="#858ee4"></path><path d="M0 0L0 292L300 285Z" fill="#aabbf2" stroke="#aabbf2"></path><path d="M300 285L626 600L624 267Z" fill="#e9f1ff" stroke="#e9f1ff"></path><path d="M310 0L0 0L300 285Z" fill="#b5c6f5" stroke="#b5c6f5"></path><path d="M278 600L626 600L300 285Z" fill="#e9f1ff" stroke="#e9f1ff"></path><path d="M0 292L278 600L300 285Z" fill="#8d9ae8" stroke="#8d9ae8"></path><path d="M626 600L900 600L900 274Z" fill="#7e83df" stroke="#7e83df"></path><path d="M0 292L0 600L278 600Z" fill="#7e83df" stroke="#7e83df"></path></g></svg>