<svg id="visual" viewBox="0 0 960 540" width="960" height="540" xmlns="http://www.w3.org/2000/svg" xmlns:xlink="http://www.w3.org/1999/xlink" version="1.1"><g stroke-width="1" stroke-linejoin="bevel"><path d="M476 320L306 190L305 371Z" fill="#e9f1ff" stroke="#e9f1ff"></path><path d="M476 320L440 117L306 190Z" fill="#e9f1ff" stroke="#e9f1ff"></path><path d="M0 540L295 540L305 371Z" fill="#e9f1ff" stroke="#e9f1ff"></path><path d="M305 371L541 540L476 320Z" fill="#fbfcff" stroke="#fbfcff"></path><path d="M667 148L483 0L440 117Z" fill="#fdfeff" stroke="#fdfeff"></path><path d="M440 117L146 0L306 190Z" fill="#ffffff" stroke="#ffffff"></path><path d="M295 540L541 540L305 371Z" fill="#f4f8ff" stroke="#f4f8ff"></path><path d="M476 320L667 148L440 117Z" fill="#ebf2ff" stroke="#ebf2ff"></path><path d="M682 416L667 148L476 320Z" fill="#fdfeff" stroke="#fdfeff"></path><path d="M541 540L682 416L476 320Z" fill="#fbfcff" stroke="#fbfcff"></path><path d="M483 0L146 0L440 117Z" fill="#f4f8ff" stroke="#f4f8ff"></path><path d="M306 190L0 349L305 371Z" fill="#ebf2ff" stroke="#ebf2ff"></path><path d="M0 175L0 349L306 190Z" fill="#f6f9ff" stroke="#f6f9ff"></path><path d="M146 0L0 175L306 190Z" fill="#fdfeff" stroke="#fdfeff"></path><path d="M541 540L697 540L682 416Z" fill="#f8fbff" stroke="#f8fbff"></path><path d="M960 0L687 0L667 148Z" fill="#fdfeff" stroke="#fdfeff"></path><path d="M667 148L687 0L483 0Z" fill="#f6f9ff" stroke="#f6f9ff"></path><path d="M960 199L667 148L682 416Z" fill="#fbfcff" stroke="#fbfcff"></path><path d="M0 349L0 540L305 371Z" fill="#ffffff" stroke="#ffffff"></path><path d="M146 0L0 0L0 175Z" fill="#edf4ff" stroke="#edf4ff"></path><path d="M960 418L960 199L682 416Z" fill="#fbfcff" stroke="#fbfcff"></path><path d="M697 540L960 418L682 416Z" fill="#ebf2ff" stroke="#ebf2ff"></path><path d="M697 540L960 540L960 418Z" fill="#f0f5ff" stroke="#f0f5ff"></path><path d="M960 199L960 0L667 148Z" fill="#edf4ff" stroke="#edf4ff"></path></g></svg>