<svg id="visual" viewBox="0 0 900 600" width="900" height="600" xmlns="http://www.w3.org/2000/svg" xmlns:xlink="http://www.w3.org/1999/xlink" version="1.1"><g stroke-width="1" stroke-linejoin="bevel"><path d="M588 290L304 305L602 600Z" fill="#f2f7ff" stroke="#f2f7ff"></path><path d="M304 305L283 600L602 600Z" fill="#e9f1ff" stroke="#e9f1ff"></path><path d="M602 600L900 299L588 290Z" fill="#e9f1ff" stroke="#e9f1ff"></path><path d="M900 600L900 299L602 600Z" fill="#ffffff" stroke="#ffffff"></path><path d="M276 0L0 310L304 305Z" fill="#f6f9ff" stroke="#f6f9ff"></path><path d="M304 305L0 310L283 600Z" fill="#edf4ff" stroke="#edf4ff"></path><path d="M0 310L0 600L283 600Z" fill="#f2f7ff" stroke="#f2f7ff"></path><path d="M900 299L616 0L588 290Z" fill="#edf4ff" stroke="#edf4ff"></path><path d="M588 290L276 0L304 305Z" fill="#edf4ff" stroke="#edf4ff"></path><path d="M616 0L276 0L588 290Z" fill="#f2f7ff" stroke="#f2f7ff"></path><path d="M900 299L900 0L616 0Z" fill="#edf4ff" stroke="#edf4ff"></path><path d="M276 0L0 0L0 310Z" fill="#f2f7ff" stroke="#f2f7ff"></path></g></svg>