<svg id="visual" viewBox="0 0 900 600" width="900" height="600" xmlns="http://www.w3.org/2000/svg" xmlns:xlink="http://www.w3.org/1999/xlink" version="1.1"><g stroke-width="1" stroke-linejoin="bevel"><path d="M608 281L900 0L572 0Z" fill="#8ba0ec" stroke="#8ba0ec"></path><path d="M608 281L900 269L900 0Z" fill="#e9f1ff" stroke="#e9f1ff"></path><path d="M572 0L293 337L608 281Z" fill="#a6bcf4" stroke="#a6bcf4"></path><path d="M293 337L633 600L608 281Z" fill="#d7e4fc" stroke="#d7e4fc"></path><path d="M608 281L633 600L900 269Z" fill="#b6c9f7" stroke="#b6c9f7"></path><path d="M270 0L293 337L572 0Z" fill="#c6d7fa" stroke="#c6d7fa"></path><path d="M633 600L900 600L900 269Z" fill="#7384e2" stroke="#7384e2"></path><path d="M293 337L261 600L633 600Z" fill="#6167d6" stroke="#6167d6"></path><path d="M0 327L261 600L293 337Z" fill="#6a76dc" stroke="#6a76dc"></path><path d="M270 0L0 327L293 337Z" fill="#98aef0" stroke="#98aef0"></path><path d="M0 0L0 327L270 0Z" fill="#7e92e7" stroke="#7e92e7"></path><path d="M0 327L0 600L261 600Z" fill="#d7e4fc" stroke="#d7e4fc"></path></g></svg>