<svg id="visual" viewBox="0 0 900 600" width="900" height="600" xmlns="http://www.w3.org/2000/svg" xmlns:xlink="http://www.w3.org/1999/xlink" version="1.1"><path d="M0 235L37.5 202C75 169 150 103 225 118C300 133 375 229 450 270C525 311 600 297 675 244C750 191 825 99 862.5 53L900 7L900 0L862.5 0C825 0 750 0 675 0C600 0 525 0 450 0C375 0 300 0 225 0C150 0 75 0 37.5 0L0 0Z" fill="#f0f6ff"></path><path d="M0 301L37.5 324C75 347 150 393 225 400C300 407 375 375 450 353C525 331 600 319 675 323C750 327 825 347 862.5 357L900 367L900 5L862.5 51C825 97 750 189 675 242C600 295 525 309 450 268C375 227 300 131 225 116C150 101 75 167 37.5 200L0 233Z" fill="#ebf3ff"></path><path d="M0 415L37.5 419C75 423 150 431 225 448C300 465 375 491 450 513C525 535 600 553 675 557C750 561 825 551 862.5 546L900 541L900 365L862.5 355C825 345 750 325 675 321C600 317 525 329 450 351C375 373 300 405 225 398C150 391 75 345 37.5 322L0 299Z" fill="#deeaff"></path><path d="M0 601L37.5 601C75 601 150 601 225 601C300 601 375 601 450 601C525 601 600 601 675 601C750 601 825 601 862.5 601L900 601L900 539L862.5 544C825 549 750 559 675 555C600 551 525 533 450 511C375 489 300 463 225 446C150 429 75 421 37.5 417L0 413Z" fill="#c9dcff"></path></svg>