<svg id="visual" viewBox="0 0 960 540" width="960" height="540" xmlns="http://www.w3.org/2000/svg" xmlns:xlink="http://www.w3.org/1999/xlink" version="1.1"><path d="M0 212L40 182.2C80 152.3 160 92.7 240 106.2C320 119.7 400 206.3 480 243.3C560 280.3 640 267.7 720 219.8C800 172 880 89 920 47.5L960 6L960 0L920 0C880 0 800 0 720 0C640 0 560 0 480 0C400 0 320 0 240 0C160 0 80 0 40 0L0 0Z" fill="#f0f6ff"></path><path d="M0 271L40 291.7C80 312.3 160 353.7 240 360C320 366.3 400 337.7 480 317.8C560 298 640 287 720 290.5C800 294 880 312 920 321L960 330L960 4L920 45.5C880 87 800 170 720 217.8C640 265.7 560 278.3 480 241.3C400 204.3 320 117.7 240 104.2C160 90.7 80 150.3 40 180.2L0 210Z" fill="#ebf3ff"></path><path d="M0 374L40 377.5C80 381 160 388 240 403.2C320 418.3 400 441.7 480 461.5C560 481.3 640 497.7 720 501.3C800 505 880 496 920 491.5L960 487L960 328L920 319C880 310 800 292 720 288.5C640 285 560 296 480 315.8C400 335.7 320 364.3 240 358C160 351.7 80 310.3 40 289.7L0 269Z" fill="#deeaff"></path><path d="M0 541L40 541C80 541 160 541 240 541C320 541 400 541 480 541C560 541 640 541 720 541C800 541 880 541 920 541L960 541L960 485L920 489.5C880 494 800 503 720 499.3C640 495.7 560 479.3 480 459.5C400 439.7 320 416.3 240 401.2C160 386 80 379 40 375.5L0 372Z" fill="#c9dcff"></path></svg>